<svg width="0" height="0" class="hidden">
  <symbol xmlns="http://www.w3.org/2000/svg" version="1.1" xmlns:xlink="http://www.w3.org/1999/xlink" x="0" y="0" xml:space="preserve" viewBox="0 0 32 32" id="star">
    <g>
      <path d="m29.911 13.75-6.229 6.072 1.471 8.576a1 1 0 0 1-1.451 1.054L16 25.403l-7.701 4.048a1 1 0 0 1-1.451-1.054l1.471-8.576-6.23-6.071a1 1 0 0 1 .555-1.706l8.609-1.25 3.85-7.802c.337-.683 1.457-.683 1.794 0l3.85 7.802 8.609 1.25a1.002 1.002 0 0 1 .555 1.706z" opacity="1" stroke="#00a4d6" stroke-width="2"></path>
    </g>
  </symbol>

  <symbol version="1.1" id="print" xmlns="http://www.w3.org/2000/svg" xmlns:xlink="http://www.w3.org/1999/xlink" x="0px" y="0px" xml:space="preserve" viewBox="0 0 347.305 347.305">
    <g>
      <g>
        <path d="M316.969,83.409h-39.385V55.157L254.387,31.96v0.1l-8.778-8.779h0.096L222.43,0H81.317C74.91,0,69.713,5.215,69.713,11.64 v71.775H30.336c-4.071,0-7.977,1.438-10.859,3.984c-2.874,2.552-4.489,6.02-4.489,9.629v181.474c0,3.76,1.714,7.17,4.489,9.632 c2.78,2.456,6.623,3.981,10.859,3.981h39.377v43.547c0,6.425,5.197,11.643,11.604,11.643h184.671 c6.401,0,11.596-5.218,11.596-11.643v-43.547h39.385c4.071,0,7.975-1.436,10.856-3.981c2.871-2.558,4.492-6.022,4.492-9.632 V97.028C332.317,89.51,325.448,83.409,316.969,83.409z M92.918,23.28h110.788v48.777h50.681v11.357H92.918V23.28z M301.608,264.896h-24.024V187.77c0-6.425-5.194-11.637-11.596-11.637H81.317c-6.407,0-11.604,5.212-11.604,11.637v77.126H45.688 V110.635h255.921V264.896z" ></path>
      </g>
    </g>
  </symbol>




</svg>